<svg width="249" height="167" viewBox="0 0 249 167" fill="none" xmlns="http://www.w3.org/2000/svg">
<g clip-path="url(#clip0_2163_1774)">
<path d="M30.7235 94.4202C40.8161 94.4202 48.9978 86.2595 48.9978 76.1929C48.9978 66.1263 40.8161 57.9657 30.7235 57.9657C20.6309 57.9657 12.4492 66.1263 12.4492 76.1929C12.4492 86.2595 20.6309 94.4202 30.7235 94.4202Z" fill="#FF6884"/>
<path d="M38.6426 166.481H3.45264L11.4054 39.1711L16.5954 9.16623L17.5845 4.10393C18.7557 -1.89012 27.592 -1.08965 27.6618 5.01678C27.8242 19.2139 21.8597 32.5749 22.1507 39.1711C23.4637 69.0329 26.2076 111.376 31.4959 123.858C35.4235 133.131 37.5236 162.993 38.6426 166.481Z" fill="#3F3D56"/>
<path d="M244.439 166.481H211.905L208.487 39.1711L201.932 9.17179C201.856 3.05087 210.701 2.05954 211.99 8.04451C211.99 8.04451 218.447 21.3953 219.232 39.1711C220.545 69.0329 232.004 111.376 237.292 123.858C241.22 133.131 243.32 162.993 244.439 166.481Z" fill="#3F3D56"/>
<path d="M49.3483 83.0567C56.7085 83.647 73.8078 92.5909 73.8078 92.591C87.0954 105.86 106.942 106.647 120.196 107.173C139.904 107.954 154.823 101.836 165.742 97.3581C165.742 97.3581 191.267 91.4945 191.607 91.4693C192.014 91.4391 192.399 92.4395 192.45 92.591C193.293 95.075 184.03 104.277 173.332 107.453C171.875 107.886 168.569 108.748 165.179 111.379C163.075 113.013 161.839 114.63 161.524 115.024C158.654 118.628 143.399 132.356 126.1 132.971C111.306 133.498 99.4796 124.276 86.1781 113.903C80.9024 109.789 81.535 109.485 74.9323 104.369C59.9581 92.765 52.471 86.9632 49.0672 85.0196C48.5954 84.7503 46.9435 83.8294 47.0992 83.3371C47.2413 82.8877 48.8205 83.0144 49.3483 83.0567Z" fill="#DAD7CD" fill-opacity="0.85098"/>
<path d="M47.099 83.6175C47.0483 83.6175 46.9971 83.6038 46.951 83.5754L10.3449 60.9117C10.2129 60.8301 10.1723 60.6571 10.2543 60.5255C10.3361 60.3937 10.5096 60.3531 10.6414 60.4352L47.2475 83.0989C47.3794 83.1805 47.4201 83.3535 47.3381 83.485C47.2848 83.5704 47.193 83.6175 47.099 83.6175Z" fill="#3F3D56"/>
<path d="M191.607 91.7497C191.506 91.7497 191.408 91.6949 191.358 91.5991C191.286 91.4619 191.339 91.2924 191.477 91.2206L223.145 74.724C223.283 74.6522 223.453 74.7053 223.524 74.8427C223.596 74.9799 223.543 75.1494 223.405 75.2211L191.737 91.7179C191.695 91.7396 191.651 91.7497 191.607 91.7497Z" fill="#3F3D56"/>
<path d="M0 166.666C0 166.851 0.149014 167 0.334577 167H45.1179C45.3034 167 45.4524 166.851 45.4524 166.666C45.4524 166.481 45.3034 166.333 45.1179 166.333H0.334577C0.149014 166.333 0 166.481 0 166.666Z" fill="#3F3D56"/>
<path d="M200.455 166.666C200.455 166.851 200.604 167 200.79 167H248.666C248.851 167 249 166.851 249 166.666C249 166.481 248.851 166.333 248.666 166.333H200.79C200.604 166.333 200.455 166.481 200.455 166.666Z" fill="#3F3D56"/>
<path d="M111.051 166.666C111.051 166.851 111.2 167 111.386 167H159.262C159.447 167 159.596 166.851 159.596 166.666C159.596 166.481 159.447 166.333 159.262 166.333H111.386C111.2 166.333 111.051 166.481 111.051 166.666Z" fill="#3F3D56"/>
<path d="M78.3334 88.2105C78.3334 88.2105 76.5385 91.0231 78.0147 92.6793C79.491 94.3355 88.4153 100.934 88.4153 100.934C88.4153 100.934 94.0374 104.372 93.4869 99.6367C92.9363 94.9014 84.9216 89.8337 84.9216 89.8337L78.3334 88.2105Z" fill="#E6E6E6"/>
<path d="M92.9222 80.7668C91.9622 80.6744 91.066 81.8192 90.9205 83.3243C90.854 83.9248 90.9327 84.5324 91.15 85.0962L91.0064 86.8038L90.9769 86.8068L88.9781 94.6482C88.5133 96.4714 88.8927 98.4247 90.0696 99.8947C90.7697 100.769 91.5942 101.303 92.3446 100.514C93.5896 99.2059 93.5502 92.8114 93.4188 89.1548L93.8313 85.3543C94.1529 84.8421 94.3467 84.2606 94.3966 83.6583C94.5424 82.1537 93.8822 80.8591 92.9222 80.7668Z" fill="#FFB6B6"/>
<path d="M95.7799 80.4274L95.7694 80.3094C95.7615 80.2156 95.7194 80.1309 95.6537 80.0734C95.5879 80.0159 95.5038 79.9947 95.4222 80.0099L91.4667 80.8752C91.3852 80.8934 91.3168 80.9479 91.2721 81.0265C91.23 81.1082 91.2169 81.205 91.2379 81.2958L91.2747 81.4532L91.5377 82.5817L92.5529 86.9388C92.5897 87.0961 92.7186 87.199 92.8553 87.1869C92.8685 87.1869 92.879 87.1869 92.8922 87.1839L96.0193 86.4759C96.0508 86.4698 96.0797 86.4577 96.106 86.4395C96.206 86.376 96.2665 86.2489 96.2559 86.1128L95.7799 80.4274Z" fill="#A3B18A"/>
<path d="M95.7034 79.7706C95.6469 79.7721 95.5713 79.7748 95.4806 79.7794C95.4989 79.7245 95.5019 79.6623 95.4847 79.6015L95.3651 79.1791C95.3341 79.0695 95.2458 78.995 95.1456 78.9944C94.5486 78.9908 92.5024 79.0442 91.3052 79.8955C91.2303 79.9488 91.1893 80.0475 91.198 80.1483L91.238 80.6119C91.2429 80.6692 91.2632 80.72 91.2934 80.7601C91.1914 80.8084 91.0899 80.8586 90.9896 80.9117C90.9268 80.945 90.8873 81.0184 90.8882 81.098L90.8904 81.2977C90.8918 81.4243 90.9928 81.5185 91.1008 81.4939L95.8252 80.4194C95.9327 80.395 95.9949 80.2648 95.9553 80.1472L95.8719 79.8999C95.845 79.8203 95.7777 79.7687 95.7034 79.7706Z" fill="#3F3D56"/>
<path d="M83.479 86.0293L82.2656 89.9628L77.1085 88.7525L76.8052 82.3985L83.479 86.0293Z" fill="#FFB6B6"/>
<path d="M76.1986 87.8448L82.8724 88.4499L85.5465 91.0551L89.2428 94.1988C89.2428 94.1988 91.3663 97.2246 90.7596 101.158L94.3998 104.184L85.2992 113.49L73.7718 103.881C73.7718 103.881 69.8282 92.0808 76.1986 87.8448Z" fill="#E6E6E6"/>
<path d="M91.9731 104.486L94.6221 104.184L98.9216 104.486L113.047 96.0963C114.823 95.041 117.12 95.5924 118.22 97.3385L129.589 115.379L125.949 117.8L114.725 106.302L100.727 117.8C100.727 117.8 86.5127 125.216 85.2993 113.49L91.9731 104.486Z" fill="#2F2E41"/>
<path d="M100.77 115.076L123.522 112.958L145.06 118.405L146.273 113.866L116.848 103.276L106.23 105.999L100.77 115.076Z" fill="#2F2E41"/>
<path d="M75.2548 90.3053C75.2548 90.3053 73.1673 92.9093 74.4565 94.7141C75.7457 96.5189 83.9074 104.036 83.9074 104.036C83.9074 104.036 89.1265 108.057 89.0893 103.29C89.0522 98.5229 81.63 92.6254 81.63 92.6254L75.2548 90.3053Z" fill="#E6E6E6"/>
<path d="M81.7098 86.2192C84.8908 86.2192 87.4694 83.6472 87.4694 80.4744C87.4694 77.3017 84.8908 74.7296 81.7098 74.7296C78.5289 74.7296 75.9502 77.3017 75.9502 80.4744C75.9502 83.6472 78.5289 86.2192 81.7098 86.2192Z" fill="#FFB6B6"/>
<path d="M87.0196 79.4871C85.5424 79.4835 85.4586 79.4933 85.2197 79.4871C83.3876 79.4389 82.9085 78.7199 81.9799 78.769C80.3225 78.8565 82.51 87.1448 83.4198 90.9766C84.3121 94.7346 81.2966 98.1021 81.08 98.3371C78.0193 101.657 72.6431 102.264 71.7206 100.85C70.9739 99.7061 73.6202 97.966 72.9805 95.4647C72.3552 93.0197 69.4679 93.28 68.6608 90.9766C67.8156 88.5644 70.656 87.3477 72.4405 81.4618C73.4654 78.0815 73.2841 77.4517 74.2404 75.358C76.7966 69.7617 89.3261 72.1445 87.9195 77.3328C87.6474 78.3364 88.3715 79.4903 87.0196 79.4871Z" fill="#2F2E41"/>
<path d="M47.5212 83.1969C54.8814 83.7872 71.8509 96.0808 71.8509 96.0808C85.1385 109.35 104.985 110.137 118.24 110.663C137.947 111.444 152.866 105.326 163.785 100.848C163.785 100.848 186.407 104.518 189.088 95.8004C189.113 95.7172 189.31 94.9843 189.65 94.9591C190.057 94.929 190.442 95.9293 190.493 96.0808C191.336 98.5649 182.074 107.767 171.376 110.943C169.918 111.376 166.612 112.237 163.222 114.869C161.118 116.503 159.882 118.119 159.568 118.514C156.697 122.118 141.442 135.845 124.144 136.461C109.349 136.988 97.5227 127.765 84.2212 117.393C78.9455 113.279 79.5782 112.975 72.9755 107.858C58.0013 96.2548 50.5141 90.453 47.1103 88.5095C46.6386 88.2401 45.9598 83.4088 46.1155 82.9165C46.2576 82.4671 46.9934 83.1546 47.5212 83.1969Z" fill="#A3B18A"/>
<path d="M106.726 113.188C107.153 112.326 106.398 111.084 105.039 110.414C104.5 110.139 103.903 109.996 103.297 109.999L101.748 109.259L101.755 109.23L95.1153 104.582C93.5715 103.502 91.606 103.162 89.8103 103.738C88.7422 104.08 87.9492 104.659 88.4219 105.639C89.2063 107.264 95.2137 109.498 98.6876 110.674L102.103 112.407C102.469 112.889 102.945 113.276 103.492 113.537C104.851 114.207 106.298 114.051 106.726 113.188Z" fill="#FFB6B6"/>
<path d="M144.009 70.132C144.009 70.132 141.824 65.7745 142.261 61.8528L134.991 65.6113L135.271 72.7465L144.009 70.132Z" fill="#A0616A"/>
<path d="M137.587 67.6239C141.209 67.6239 144.145 64.6953 144.145 61.0827C144.145 57.4701 141.209 54.5415 137.587 54.5415C133.965 54.5415 131.029 57.4701 131.029 61.0827C131.029 64.6953 133.965 67.6239 137.587 67.6239Z" fill="#A0616A"/>
<path d="M146.196 163.805L142.194 163.804L140.291 148.408L146.197 148.409L146.196 163.805Z" fill="#A0616A"/>
<path d="M132.485 163.714C132.361 163.924 132.295 164.599 132.295 164.843C132.295 165.591 132.903 166.197 133.653 166.197H146.046C146.558 166.197 146.973 165.784 146.973 165.273V164.758C146.973 164.758 147.586 163.212 146.324 161.305C146.324 161.305 144.755 162.798 142.411 160.46L141.72 159.211L136.716 162.861L133.942 163.202C133.335 163.276 132.797 163.19 132.485 163.714Z" fill="#2F2E41"/>
<path d="M134.398 70.132L144.009 68.8248L151.436 72.3107L151.873 99.3271C151.873 99.3271 133.603 101.506 130.724 98.6735C127.845 95.8411 130.029 73.1822 130.029 73.1822L134.398 70.132Z" fill="#E6E6E6"/>
<path d="M139.227 62.7491H140.99C140.99 62.7491 142.52 60.871 142.314 62.0153C142.108 63.1596 142.932 64.3912 142.932 64.3912L144.166 63.9807C144.166 63.9807 146.636 53.6237 139.227 53.0548C131.819 52.4859 130.172 58.2333 130.172 58.2333C130.172 58.2333 130.584 61.107 131.407 60.2859C132.23 59.4649 136.758 59.0543 136.758 59.0543L139.227 62.7491Z" fill="#2F2E41"/>
<path d="M129.948 133.322L126.288 134.936L118.303 121.624L123.705 119.242L129.948 133.322Z" fill="#A0616A"/>
<path d="M117.372 138.771C117.343 139.013 117.557 139.657 117.656 139.88C117.959 140.564 118.761 140.873 119.447 140.571L130.782 135.571C131.249 135.364 131.461 134.818 131.254 134.352L131.045 133.881C131.045 133.881 130.979 132.219 129.051 130.985C129.051 130.985 128.222 132.983 125.13 131.79L123.991 130.927L120.895 136.284L118.497 137.714C117.972 138.027 117.445 138.166 117.372 138.771Z" fill="#2F2E41"/>
<path d="M150.562 96.7126L151.872 100.665V114.252L147.591 126.561L147.941 155.261H140.259L139.392 125.987L140.077 111.528L134.834 109.349L121.064 110.197L127.504 125.987L120.418 130.701C120.418 130.701 109.819 106.61 111.405 104.276C112.991 101.942 131.558 97.8243 131.558 97.8243C131.558 97.8243 150.562 97.1484 150.562 96.7126Z" fill="#2F2E41"/>
<path d="M154.494 81.0257L156.606 84.4761C156.606 84.4761 159.592 96.1817 156.606 96.2293C153.62 96.2769 147.591 90.2639 147.591 90.2639L148.377 87.1262L150.562 87.9977L150.125 81.0257H154.494Z" fill="#A0616A"/>
<path d="M147.94 72.2558C147.94 72.2558 154.93 71.0275 155.586 75.5909C156.241 80.1542 156.606 84.4761 156.606 84.4761L149.033 85.1018L147.94 72.2558Z" fill="#E6E6E6"/>
<path d="M149.458 89.8802C150.09 88.9952 149.163 87.2559 147.389 85.9954C145.615 84.7348 143.664 84.4303 143.032 85.3153C142.4 86.2002 143.326 87.9395 145.101 89.2001C146.875 90.4606 148.826 90.7651 149.458 89.8802Z" fill="#A0616A"/>
<path d="M138.52 79.4455L138.504 79.2664C138.492 79.1239 138.428 78.9953 138.328 78.908C138.229 78.8207 138.101 78.7885 137.977 78.8115L131.97 80.1256C131.847 80.1531 131.743 80.2359 131.675 80.3553C131.611 80.4794 131.591 80.6264 131.623 80.7642L131.679 81.0032L132.078 82.717L133.62 89.3334C133.676 89.5723 133.871 89.7285 134.079 89.7102C134.099 89.7102 134.115 89.7102 134.135 89.7056L138.884 88.6304C138.932 88.6212 138.975 88.6028 139.015 88.5753C139.167 88.4788 139.259 88.2858 139.243 88.0791L138.52 79.4455Z" fill="#A3B18A"/>
<path d="M138.404 78.4481C138.318 78.4504 138.203 78.4546 138.066 78.4615C138.093 78.3781 138.098 78.2837 138.072 78.1913L137.89 77.5499C137.843 77.3834 137.709 77.2703 137.557 77.2694C136.65 77.264 133.543 77.345 131.725 78.6378C131.611 78.7187 131.549 78.8686 131.562 79.0217L131.623 79.7256C131.63 79.8127 131.661 79.8898 131.707 79.9508C131.552 80.0241 131.398 80.1003 131.246 80.181C131.15 80.2315 131.09 80.343 131.092 80.4639L131.095 80.767C131.097 80.9594 131.251 81.1024 131.415 81.0651L138.589 79.4334C138.752 79.3963 138.847 79.1985 138.786 79.02L138.66 78.6445C138.619 78.5235 138.517 78.4452 138.404 78.4481Z" fill="#3F3D56"/>
<path d="M124.979 81.3061L122.867 84.7565C122.867 84.7565 119.881 96.4621 122.867 96.5097C125.853 96.5573 131.881 90.5443 131.881 90.5443L131.095 87.4066L128.911 88.2781L129.348 81.3061H124.979Z" fill="#A0616A"/>
<path d="M131.532 72.5363C131.532 72.5363 124.542 71.3079 123.887 75.8713C123.232 80.4346 122.867 84.7565 122.867 84.7565L130.44 85.3823L131.532 72.5363Z" fill="#E6E6E6"/>
<path d="M134.372 89.4805C136.147 88.2199 137.073 86.4806 136.441 85.5957C135.809 84.7107 133.859 85.0152 132.084 86.2758C130.31 87.5363 129.383 89.2756 130.015 90.1606C130.647 91.0455 132.598 90.741 134.372 89.4805Z" fill="#A0616A"/>
</g>
<defs>
<clipPath id="clip0_2163_1774">
<rect width="249" height="167" fill="white"/>
</clipPath>
</defs>
</svg>
